#N canvas 14 38 794 643 12;
#X obj 100 100 cnv 19 330 60 empty empty empty 20 12 0 12 #404040 #404040 0;
#X msg 114 425 250;
#X msg 68 364 252;
#X msg 147 449 240 \, 127 \, 0 \, 6 \, 2 \, 247;
#X msg 100 391 240 \, 127 \, 0 \, 6 \, 1 \, 247;
#X obj 68 330 t b b;
#X obj 115 359 t b b;
#X obj 101 105 bng 50 250 50 0 empty empty STOP 4 24 0 18 #cb0302 #000000 #000000;
#X obj 275 125 tgl 30 0 empty empty EXT-> 0 -10 0 12 #ff8300 #000000 #ffffff 0 1;
#X obj 312 285 expr 60000 / ($f1 * 24);
#X obj 312 337 metro;
#X obj 312 308 t b f;
#X msg 312 396 248;
#X msg 213 489 240 \, 127 \, 0 \, 6 \, 68 \, 6 \, 1 \, 0 \, 0 \, 0 \, 0 247;
#X obj 324 105 nbx 5 25 1 300 0 0 empty empty empty 0 -10 0 12 #fcfcfc #000000 #000000 0 256;
#X obj 317 136 hsl 105 19 1 200 0 0 empty empty empty -2 -10 0 12 #ffc7c6 #000000 #000000 0 1;
#X obj 314 75 int;
#X obj 75 523 midiout;
#X obj 278 12 loadbang;
#X msg 278 39 120;
#X obj 158 105 bng 50 250 50 0 empty empty PLAY 4 24 0 18 #00ad0f #000000 #000000;
#X obj 215 105 bng 50 250 50 0 empty empty << 14 24 0 18 #3343ff #000000 #000000;
#X obj 400 108 bng 19 250 50 0 empty \$0-beatLight empty 0 -10 0 12 #fcfcfc #000000 #000000;
#X msg 407 193 1;
#X obj 356 193 0;
#X obj 607 414 mod 24;
#X obj 575 391 + 1;
#X msg 575 356 1, f 5;
#X floatatom 607 391 5 0 0 0 - - - 0;
#X obj 607 438 sel 0;
#X obj 312 367 spigot;
#X obj 327 440 s MidiTm;
#X obj 607 527 s \$0-beatLight;
#X obj 607 474 t b b;
#X obj 639 501 s QRT;
#X connect 1 0 17 0;
#X connect 2 0 17 0;
#X connect 3 0 17 0;
#X connect 4 0 17 0;
#X connect 5 0 2 0;
#X connect 5 1 4 0;
#X connect 6 0 1 0;
#X connect 6 1 3 0;
#X connect 7 0 5 0;
#X connect 7 0 24 0;
#X connect 8 0 30 1;
#X connect 9 0 11 0;
#X connect 10 0 27 0;
#X connect 10 0 30 0;
#X connect 11 0 10 0;
#X connect 11 1 10 1;
#X connect 12 0 17 0;
#X connect 12 0 31 0;
#X connect 13 0 17 0;
#X connect 14 0 9 0;
#X connect 15 0 16 0;
#X connect 16 0 14 0;
#X connect 18 0 19 0;
#X connect 19 0 15 0;
#X connect 20 0 6 0;
#X connect 20 0 23 0;
#X connect 21 0 13 0;
#X connect 23 0 10 0;
#X connect 24 0 28 0;
#X connect 24 0 10 0;
#X connect 25 0 29 0;
#X connect 26 0 28 0;
#X connect 27 0 26 0;
#X connect 28 0 26 1;
#X connect 28 0 25 0;
#X connect 29 0 33 0;
#X connect 30 0 12 0;
#X connect 33 0 32 0;
#X connect 33 1 34 0;
#X coords 0 -1 1 1 330 60 2 100 100;
